<svg width="37" height="37" viewBox="0 0 37 37" fill="none" xmlns="http://www.w3.org/2000/svg">
<g clip-path="url(#clip0_2587_82685)">
<path d="M22.668 10.0811V14.3763L23.491 15.1603L22.668 16.5412V19.2889L23.4207 20.0822L22.668 21.4537V24.2015L23.5613 25.004L22.668 26.3663V29.1141L22.9988 30.1369L22.668 31.2789V32.7545L27.505 35.5509L28.3425 20.0119L27.505 10.0811H22.668Z" fill="#E5F2FA"/>
<path d="M32.2692 10.0811H27.5078V35.5509L32.2692 32.7545V29.0639L31.7204 28.5197L32.2692 26.8991V24.1513L31.5797 23.1056L32.2692 21.9864V19.2387L31.7907 18.254L32.2692 17.0739V14.3261L31.861 13.2619L32.2692 12.1613V10.0811Z" fill="#D0E8FF"/>
<path d="M18.4375 1.44922V10.2919H27.5069L29.3288 6.23047L27.5069 1.44922H18.4375Z" fill="#D0E8FF"/>
<path d="M27.5078 1.44922H36.5016V10.2919H27.5078V1.44922Z" fill="#9DCFFF"/>
<path d="M22.668 31.279L27.505 30.1628L28.2722 28.8714L27.505 27.998L22.668 29.1143V31.279Z" fill="#D0E8FF"/>
<path d="M32.2692 29.0642V26.8994L27.5078 27.9982V30.163L32.2692 29.0642Z" fill="#9DCFFF"/>
<path d="M22.668 26.366L27.505 25.2497L28.2019 24.2303L27.505 23.085L22.668 24.2012V26.366Z" fill="#D0E8FF"/>
<path d="M32.2692 24.1512V21.9863L27.5078 23.0852V25.25L32.2692 24.1512Z" fill="#9DCFFF"/>
<path d="M22.668 21.4538L27.505 20.3376L28.4832 19.1683L27.505 18.1729L22.668 19.2891V21.4538Z" fill="#D0E8FF"/>
<path d="M32.2692 19.239V17.0742L27.5078 18.173V20.3378L32.2692 19.239Z" fill="#9DCFFF"/>
<path d="M22.668 16.5408L27.505 15.4245L27.9207 14.3865L27.505 13.2598L22.668 14.376V16.5408Z" fill="#D0E8FF"/>
<path d="M32.2692 14.3259V12.1611L27.5078 13.2599V15.4247L32.2692 14.3259Z" fill="#9DCFFF"/>
<path d="M5.97207 27.7354C5.97207 25.7765 7.5657 24.1829 9.52454 24.1829L10.625 22.0508L9.52454 19.9199H5.01223L0.5 27.7354L5.01223 35.5508H9.52447L10.5546 33.1602L9.52447 31.2878C7.56563 31.2878 5.97207 29.6942 5.97207 27.7354Z" fill="#697C84"/>
<path d="M18.5479 27.7354L14.0357 19.9199H9.52344V24.1829C11.4823 24.1829 13.0759 25.7765 13.0759 27.7354C13.0759 29.6942 11.4823 31.2878 9.52344 31.2878V35.5508H14.0357L18.5479 27.7354Z" fill="#596C76"/>
</g>
<defs>
<clipPath id="clip0_2587_82685">
<rect width="36" height="36" fill="white" transform="translate(0.5 0.5)"/>
</clipPath>
</defs>
</svg>
