<svg width="20" height="20" viewBox="0 0 20 20" fill="none" xmlns="http://www.w3.org/2000/svg">
<g clip-path="url(#clip0_2374_111225)">
<path fill-rule="evenodd" clip-rule="evenodd" d="M14.0111 10.4328C13.779 10.0308 13.3632 9.79074 12.899 9.79074C12.4347 9.79074 12.0189 10.0308 11.7868 10.4328L7.56184 17.7507C7.32973 18.1528 7.32973 18.6329 7.56184 19.035C7.79394 19.437 8.20977 19.6771 8.67398 19.6771H17.1239C17.5882 19.6771 18.004 19.437 18.2361 19.035C18.4682 18.6329 18.4682 18.1528 18.2361 17.7507L14.0111 10.4328ZM2.95121 15.0455C2.33629 14.1298 1.89516 13.0876 1.67488 11.9662L0 11.3216V9.32289L1.67516 8.67809C1.89535 7.55684 2.33656 6.51492 2.95133 5.59941L2.22227 3.95781L3.63551 2.54453L5.27719 3.27367C6.19281 2.65902 7.23457 2.21773 8.35574 1.99754L9.00059 0.322266H10.9993L11.6441 1.99754C12.7653 2.21773 13.807 2.65902 14.7226 3.27367L16.3644 2.54453L17.7777 3.95777L17.0487 5.59898C17.6637 6.51465 18.1048 7.55684 18.3251 8.6782L20 9.32285V11.3215L18.3247 11.9664C18.1286 12.9653 17.7568 13.9012 17.2434 14.741L15.76 12.1716C15.947 11.5886 16.0484 10.9673 16.0484 10.3222C16.0484 6.98183 13.3404 4.27387 10 4.27387C6.65961 4.27387 3.9516 6.98183 3.9516 10.3222C3.9516 12.9025 5.56762 15.1051 7.84266 15.974L7.00309 17.4282C6.86941 17.6597 6.78719 17.9096 6.75637 18.1638C6.23516 17.9479 5.74012 17.6815 5.2773 17.3708L3.63555 18.1L2.22227 16.6867L2.95121 15.0455ZM12.899 17.4877C13.2334 17.4877 13.5046 17.7588 13.5046 18.0932C13.5046 18.4277 13.2335 18.6988 12.899 18.6988C12.5645 18.6988 12.2934 18.4277 12.2934 18.0932C12.2934 17.7588 12.5645 17.4877 12.899 17.4877ZM12.899 16.4066C12.6446 16.4066 12.4357 16.2052 12.4266 15.9509L12.3071 12.642C12.3023 12.5089 12.3468 12.3926 12.4393 12.2967C12.5317 12.2009 12.6463 12.1522 12.7795 12.1522H13.0185C13.1517 12.1522 13.2663 12.2009 13.3588 12.2967C13.4512 12.3926 13.4957 12.5089 13.4909 12.642L13.3714 15.9509C13.3622 16.2052 13.1534 16.4066 12.899 16.4066Z" fill="#DB6037"/>
</g>
<defs>
<clipPath id="clip0_2374_111225">
<rect width="20" height="20" fill="white"/>
</clipPath>
</defs>
</svg>
