<svg width="20" height="20" viewBox="0 0 20 20" fill="none" xmlns="http://www.w3.org/2000/svg">
<g clip-path="url(#clip0_2374_111203)">
<path d="M19.8983 8.57003C19.8649 8.33695 19.6952 8.14648 19.4675 8.08659L18.4716 7.82452C18.2666 7.02421 17.9502 6.26144 17.5275 5.54898L18.0471 4.65796C18.1657 4.4546 18.1511 4.20007 18.01 4.01163C17.7259 3.63202 17.41 3.26769 17.0711 2.92862C16.7329 2.59034 16.3685 2.2744 15.988 1.98948C15.7996 1.84839 15.545 1.83374 15.3416 1.95245L14.4507 2.47214C13.7382 2.0494 12.9755 1.73296 12.1752 1.528L11.9131 0.532178C11.8532 0.304482 11.6629 0.134756 11.4298 0.101279C10.4897 -0.0337598 9.51027 -0.0337598 8.5702 0.101279C8.33711 0.134717 8.14676 0.304443 8.08684 0.532178L7.82477 1.528C7.02449 1.73292 6.2618 2.04937 5.54926 2.47214L4.6584 1.95245C4.45504 1.83382 4.20039 1.84847 4.01195 1.98948C3.63152 2.27437 3.26711 2.5903 2.92887 2.92862C2.58996 3.26765 2.27406 3.63198 1.98992 4.01159C1.84887 4.20003 1.83426 4.45456 1.95281 4.65792L2.47242 5.54894C2.04973 6.26148 1.73328 7.02421 1.52836 7.82448L0.5325 8.08655C0.304766 8.14644 0.135039 8.33691 0.101641 8.56999C0.0342188 9.04027 0 9.52128 0 9.99976C0 10.4782 0.0342187 10.9593 0.10168 11.4295C0.135078 11.6626 0.304805 11.853 0.532539 11.9129L1.5284 12.175C1.73336 12.9753 2.0498 13.7381 2.47246 14.4505L1.95285 15.3416C1.8343 15.5449 1.84891 15.7994 1.98996 15.9879C2.2741 16.3675 2.59 16.7318 2.92895 17.0709C3.26711 17.4092 3.63152 17.7251 4.01199 18.01C4.20043 18.1511 4.455 18.1658 4.65844 18.0471L5.5493 17.5274C6.26176 17.9501 7.02453 18.2666 7.8248 18.4715L8.08687 19.4673C8.1468 19.695 8.33715 19.8647 8.57023 19.8982C9.04027 19.9658 9.52133 20 10 20C10.4787 20 10.9597 19.9658 11.4298 19.8983C11.6629 19.8648 11.8532 19.6951 11.9132 19.4674L12.1752 18.4716C12.9755 18.2666 13.7382 17.9502 14.4507 17.5275L15.3416 18.0471C15.545 18.1659 15.7996 18.1512 15.988 18.0101C16.3685 17.7252 16.7329 17.4093 17.0711 17.071C17.41 16.7319 17.7259 16.3676 18.0101 15.988C18.1511 15.7996 18.1657 15.545 18.0472 15.3417L17.5276 14.4507C17.9503 13.7381 18.2667 12.9754 18.4716 12.1751L19.4675 11.913C19.6952 11.8532 19.865 11.6627 19.8984 11.4296C19.9658 10.9594 20 10.4784 20 9.99988C20 9.5214 19.9658 9.04027 19.8983 8.57003ZM10 16.2344C6.56234 16.2344 3.76562 13.4376 3.76562 9.99999C3.76562 6.56234 6.56234 3.76562 10 3.76562C13.4377 3.76562 16.2344 6.56234 16.2344 9.99999C16.2344 13.4376 13.4377 16.2344 10 16.2344Z" fill="#FECE00"/>
<path d="M10 4.9375C7.20852 4.9375 4.9375 7.20852 4.9375 10C4.9375 12.7915 7.20852 15.0625 10 15.0625C12.7915 15.0625 15.0625 12.7915 15.0625 10C15.0625 7.20852 12.7915 4.9375 10 4.9375ZM12.9247 9.1591L9.78672 12.2972C9.67684 12.407 9.52782 12.4688 9.37242 12.4688C9.21703 12.4688 9.06797 12.4071 8.95813 12.2972L7.38906 10.7281C7.16024 10.4993 7.16024 10.1283 7.38906 9.8995C7.61785 9.67071 7.98887 9.67071 8.2177 9.8995L9.37242 11.0542L12.0961 8.33047C12.3249 8.10168 12.6959 8.10168 12.9248 8.33047C13.1536 8.55926 13.1536 8.93028 12.9247 9.1591Z" fill="#FECE00"/>
</g>
<defs>
<clipPath id="clip0_2374_111203">
<rect width="20" height="20" fill="white"/>
</clipPath>
</defs>
</svg>
