<svg width="20" height="20" viewBox="0 0 20 20" fill="none" xmlns="http://www.w3.org/2000/svg">
<g clip-path="url(#clip0_2374_111214)">
<path d="M16.2115 11.7413V8.66162L15.0242 8.43121C14.9609 8.25162 14.8878 8.07538 14.8054 7.90341L15.4832 6.90106L13.3079 4.72119L12.3042 5.39716C12.1293 5.31277 11.9497 5.23816 11.7666 5.17361L11.5362 3.98633H8.45654L8.22614 5.17361C8.04654 5.23694 7.8703 5.31003 7.69849 5.39243L6.69598 4.71448L4.51627 6.88992L5.19208 7.89365C5.10785 8.06866 5.03308 8.24811 4.96854 8.43106L3.78125 8.66162V11.7413L4.96854 11.9717C5.03201 12.1513 5.1051 12.3275 5.1875 12.4994L4.50955 13.5017L6.685 15.6816L7.68857 15.0058C7.86359 15.09 8.04303 15.1648 8.22614 15.2293L8.45654 16.4166H11.5362L11.7666 15.2293C11.9462 15.166 12.1225 15.0929 12.2944 15.0103L13.2968 15.6883L15.4767 13.513L14.8007 12.5093C14.8851 12.3343 14.9597 12.1548 15.0242 11.9717L16.2115 11.7413ZM10.0451 12.3622C8.85358 12.3622 7.88434 11.3929 7.88434 10.2014C7.88434 9.00998 8.85358 8.04059 10.0451 8.04059C11.2365 8.04059 12.2059 9.00998 12.2059 10.2014C12.2059 11.3929 11.2365 12.3622 10.0451 12.3622Z" fill="#20519F"/>
<path d="M16.2127 11.7413V8.66162L15.0255 8.43121C14.9621 8.25162 14.889 8.07538 14.8066 7.90341L15.4844 6.90106L13.3091 4.72119L12.3054 5.39716C12.1306 5.31277 11.951 5.23816 11.7679 5.17361L11.5374 3.98633H9.99219V8.04196C10.0102 8.04166 10.0282 8.04059 10.0462 8.04059C11.2378 8.04059 12.207 9.00998 12.207 10.2014C12.207 11.3929 11.2378 12.3622 10.0462 12.3622C10.028 12.3622 10.0102 12.3613 9.99219 12.3608V16.4166H11.5374L11.7679 15.2293C11.9474 15.166 12.1237 15.0929 12.2957 15.0103L13.298 15.6883L15.4779 13.513L14.8019 12.5093C14.8863 12.3343 14.9609 12.1548 15.0255 11.9717L16.2127 11.7413Z" fill="#20519F"/>
<path d="M1.50269 7.6102C2.09549 5.49976 3.44483 3.69434 5.30259 2.52674C7.02301 1.4455 8.99689 0.997349 11.0111 1.23111C12.4712 1.40064 13.8684 1.93561 15.0618 2.76828L14.1374 2.80017L14.1777 3.97129L17.2217 3.86646L17.1115 0.860173L15.9404 0.903202L15.9802 1.98658C14.576 0.941502 12.901 0.270878 11.1461 0.0671733C10.0395 -0.0613057 8.92914 -0.00530593 7.84592 0.233647C6.72486 0.480686 5.65934 0.918461 4.67896 1.53461C2.57477 2.8574 1.04599 4.90253 0.374607 7.29343C-0.29205 9.66724 -0.0636256 12.1884 1.01761 14.3926L2.06971 13.8765C1.11542 11.9315 0.914158 9.70615 1.50269 7.6102Z" fill="#20519F"/>
<path d="M18.7052 5.08008L17.6854 5.65747C18.805 7.63455 19.1161 9.94016 18.5618 12.1495C18.0056 14.3657 16.6335 16.2561 14.6982 17.4725C12.9114 18.5956 10.7801 19.0406 8.69709 18.7259C7.0763 18.481 5.56247 17.7911 4.32407 16.7491L5.41629 16.7114L5.37586 15.5403L2.33203 15.6451L2.4422 18.6514L3.61316 18.6084L3.57807 17.6527C4.97928 18.829 6.69056 19.6077 8.52192 19.8845C9.01661 19.9592 9.51344 19.9962 10.0089 19.9962C11.8773 19.9962 13.7215 19.4703 15.3217 18.4645C17.5139 17.0866 19.0682 14.9452 19.6982 12.4347C20.3263 9.93222 19.9737 7.32022 18.7052 5.08008Z" fill="#20519F"/>
<path d="M15.0624 2.76877L14.138 2.80051L14.1783 3.97162L17.2223 3.86694L17.1121 0.860657L15.941 0.903534L15.9808 1.98706C14.5766 0.941833 12.9016 0.27121 11.1467 0.0675049C10.7645 0.0231018 10.3818 0.00128174 10 0.000976562V1.17163C10.3354 1.17255 10.6729 1.19223 11.0117 1.23145C12.4718 1.40097 13.869 1.93594 15.0624 2.76877Z" fill="#20519F"/>
<path d="M18.7038 5.08008L17.684 5.65747C18.8036 7.63455 19.1147 9.94016 18.5604 12.1495C18.0042 14.3657 16.6321 16.2561 14.6968 17.4725C13.2822 18.3616 11.6516 18.8253 10 18.824V19.9962H10.0073C11.8759 19.9962 13.7201 19.4703 15.3203 18.4646C17.5125 17.0868 19.0668 14.9452 19.6968 12.4348C20.3249 9.93222 19.9722 7.32022 18.7038 5.08008Z" fill="#20519F"/>
</g>
<defs>
<clipPath id="clip0_2374_111214">
<rect width="20" height="20" fill="white"/>
</clipPath>
</defs>
</svg>
