<svg width="37" height="37" viewBox="0 0 37 37" fill="none" xmlns="http://www.w3.org/2000/svg">
<g clip-path="url(#clip0_2587_30785)">
<path d="M25.8195 22.487C25.2078 16.5386 20.4617 11.7925 14.5133 11.1807L12.693 13.8307L11.286 11.2861C5.2321 12.1932 0.5 17.4456 0.5 23.7737C0.5 30.7557 6.24453 36.5003 13.2266 36.5003C19.5547 36.5003 24.807 31.7682 25.714 25.7143L27.9922 23.7737L25.8195 22.487ZM22.4867 25.8197C21.5586 30.0807 17.7618 33.2659 13.2266 33.2659C7.99538 33.2659 3.73438 29.0049 3.73438 23.7737C3.73438 19.2385 6.91953 15.4417 11.1805 14.5135L12.6929 13.8307L14.3446 14.3447C18.6899 14.851 22.1492 18.3104 22.6554 22.6557L20.6094 23.7737L22.4867 25.8197Z" fill="#FFE666"/>
<path d="M25.7124 25.7143L27.9906 23.7737L25.8179 22.487C25.2063 16.5386 20.4602 11.7925 14.5117 11.1807L12.6914 13.8307L14.3431 14.3447C18.6884 14.851 22.1477 18.3104 22.6539 22.6557L20.6078 23.7737L22.4852 25.8197C21.557 30.0807 17.7602 33.2659 13.225 33.2659V36.5003C19.5531 36.5003 24.8055 31.7682 25.7124 25.7143Z" fill="#FABE2C"/>
<path d="M36.5001 13.2266C36.5001 19.5547 31.768 24.807 25.7141 25.714C25.8406 25.0812 25.8829 24.4273 25.8829 23.7734C25.8829 23.3304 25.8618 22.9085 25.8195 22.4867C30.0805 21.5586 33.2657 17.7616 33.2657 13.2266C33.2657 7.99524 29.0047 3.73438 23.7735 3.73438C19.2383 3.73438 15.4415 6.91953 14.5134 11.1804C14.3657 11.8343 14.2813 12.5304 14.2813 13.2266C14.2813 13.6062 14.3024 13.9859 14.3447 14.3445C14.8509 18.6898 18.3102 22.1491 22.6555 22.6554C22.6977 23.0141 22.7188 23.3937 22.7188 23.7734C22.7188 24.4695 22.6345 25.1656 22.4868 25.8195C16.5384 25.2078 11.7923 20.4617 11.1805 14.5132C11.1383 14.0913 11.1172 13.6694 11.1172 13.2265C11.1172 12.5726 11.1594 11.9187 11.286 11.2858C12.193 5.23196 17.4454 0.5 23.7735 0.5C30.7555 0.5 36.5001 6.24453 36.5001 13.2266Z" fill="#FABE2C"/>
<path d="M33.2656 13.2266C33.2656 17.7616 30.0805 21.5586 25.8195 22.4867C25.8617 22.9085 25.8828 23.3304 25.8828 23.7734C25.8828 24.4273 25.8406 25.0812 25.714 25.714C31.7679 24.807 36.5 19.5547 36.5 13.2266C36.5 6.24453 30.7555 0.5 23.7734 0.5V3.73438C29.0046 3.73438 33.2656 7.99524 33.2656 13.2266Z" fill="#FF9100"/>
</g>
<defs>
<clipPath id="clip0_2587_30785">
<rect width="36" height="36" fill="white" transform="translate(0.5 0.5)"/>
</clipPath>
</defs>
</svg>
