<svg width="40" height="40" viewBox="0 0 40 40" fill="none" xmlns="http://www.w3.org/2000/svg">
<path d="M23 22.25L30 12.9169L32.5 16.25V7.5H7.5V32.5H22.8294C21.8369 31.0812 21.25 29.3587 21.25 27.5C21.25 25.6194 21.8712 23.755 23 22.25Z" fill="#64C8F0"/>
<path d="M32.5 7.5H7.5C6.80937 7.5 6.25 6.94062 6.25 6.25C6.25 5.55937 6.80937 5 7.5 5H32.5C33.1906 5 33.75 5.55937 33.75 6.25C33.75 6.94062 33.1906 7.5 32.5 7.5Z" fill="#288CB4"/>
<path d="M7.5 7.5H10V32.5H7.5V7.5Z" fill="#46AAD2"/>
<path d="M32.5 12.5H7.5C6.80937 12.5 6.25 11.9406 6.25 11.25C6.25 10.5594 6.80937 10 7.5 10H32.5C33.1906 10 33.75 10.5594 33.75 11.25C33.75 11.9406 33.1906 12.5 32.5 12.5Z" fill="#288CB4"/>
<path d="M22.8294 32.5H7.5C6.80937 32.5 6.25 33.0594 6.25 33.75C6.25 34.4406 6.80937 35 7.5 35H25.5163C24.4544 34.3631 23.5375 33.5119 22.8294 32.5Z" fill="#288CB4"/>
<path d="M7.5 27.5C6.80937 27.5 6.25 28.0594 6.25 28.75C6.25 29.4406 6.80937 30 7.5 30H21.6187C21.3813 29.2069 21.25 28.3687 21.25 27.5H7.5Z" fill="#288CB4"/>
<path d="M30 15L24 23C23.0263 24.2981 22.5 25.8775 22.5 27.5C22.5 31.6419 25.8581 35 30 35C34.1419 35 37.5 31.6419 37.5 27.5C37.5 25.8775 36.9737 24.2981 36 23L30 15Z" fill="#FAB400"/>
<path d="M25 27.5C25 25.8775 25.5263 24.2981 26.5 23L31.25 16.6669L30 15L24 23C23.0263 24.2981 22.5 25.8775 22.5 27.5C22.5 31.6419 25.8581 35 30 35C30.4269 35 30.8425 34.9562 31.25 34.8875C27.7044 34.2913 25 31.215 25 27.5Z" fill="#DC9600"/>
<path d="M30 5H22.5V3.75C22.5 3.05937 23.0594 2.5 23.75 2.5H28.75C29.4406 2.5 30 3.05937 30 3.75V5Z" fill="#FA6450"/>
<path d="M25 5H22.5V3.75C22.5 3.05937 23.0594 2.5 23.75 2.5H25V5Z" fill="#DC4632"/>
</svg>
