<svg width="40" height="40" viewBox="0 0 40 40" fill="none" xmlns="http://www.w3.org/2000/svg">
<g clip-path="url(#clip0_2374_109893)">
<path d="M37.6688 22.5398L40 22.1742V17.8258L37.6688 17.4602C35.75 17.1367 35.0758 14.5953 36.5758 13.3625L38.3352 11.9133L36.1703 8.16484L34.0172 8.97109C32.1945 9.65391 30.3453 7.80703 31.0289 5.98281L31.8352 3.82969L28.0867 1.66484L26.6375 3.42422C25.407 4.92109 22.8641 4.25313 22.5398 2.33125L22.1742 0H17.8258L17.4602 2.33125C17.1344 4.25 14.5953 4.92422 13.3625 3.42422L11.9133 1.66484L8.16484 3.82969L8.97109 5.98281C9.65391 7.80547 7.80703 9.65469 5.98281 8.97109L3.82969 8.16484L1.66484 11.9133L3.42422 13.3625C4.91797 14.5922 4.25781 17.1352 2.33125 17.4602L0 17.8258V22.1742L2.33125 22.5398C4.24219 22.8641 4.92969 25.3984 3.42422 26.6375L1.66484 28.0867L3.82969 31.8352L5.98281 31.0289C7.79688 30.3492 9.65781 32.1859 8.97109 34.0172L8.16484 36.1703L11.9133 38.3352L13.3625 36.5758C14.5914 35.0828 17.1336 35.7422 17.4602 37.6688L17.8258 40H22.1742L22.5398 37.6688C22.8617 35.7625 25.3961 35.0672 26.6375 36.5758L28.0867 38.3352L31.8352 36.1703L31.0289 34.0172C30.3492 32.2031 32.1859 30.3422 34.0172 31.0289L36.1703 31.8352L38.3352 28.0867L36.5758 26.6375C35.0789 25.4062 35.7469 22.8656 37.6688 22.5398ZM20 29.7656C14.6148 29.7656 10.2344 25.3852 10.2344 20C10.2344 14.6148 14.6148 10.2344 20 10.2344C25.3852 10.2344 29.7656 14.6148 29.7656 20C29.7656 25.3852 25.3852 29.7656 20 29.7656Z" fill="#7ED8F6"/>
<path d="M36.5758 26.6375L38.3352 28.0867L36.1703 31.8352L34.0172 31.0289C32.1859 30.3422 30.3492 32.2031 31.0289 34.0172L31.8352 36.1703L28.0867 38.3352L26.6375 36.5758C25.3961 35.0672 22.8617 35.7625 22.5398 37.6688L22.1742 40H20V29.7656C25.3852 29.7656 29.7656 25.3852 29.7656 20C29.7656 14.6148 25.3852 10.2344 20 10.2344V0H22.1742L22.5398 2.33125C22.8641 4.25313 25.407 4.92109 26.6375 3.42422L28.0867 1.66484L31.8352 3.82969L31.0289 5.98281C30.3453 7.80703 32.1945 9.65391 34.0172 8.97109L36.1703 8.16484L38.3352 11.9133L36.5758 13.3625C35.0758 14.5953 35.75 17.1367 37.6688 17.4602L40 17.8258V22.1742L37.6688 22.5398C35.7469 22.8656 35.0789 25.4062 36.5758 26.6375Z" fill="#6AA9FF"/>
<path d="M20 9.45312C14.1844 9.45312 9.45312 14.1844 9.45312 20C9.45312 25.8156 14.1844 30.5469 20 30.5469C25.8156 30.5469 30.5469 25.8156 30.5469 20C30.5469 14.1844 25.8156 9.45312 20 9.45312ZM20 25.8594C16.7695 25.8594 14.1406 23.2312 14.1406 20C14.1406 16.7688 16.7695 14.1406 20 14.1406C23.2305 14.1406 25.8594 16.7688 25.8594 20C25.8594 23.2312 23.2305 25.8594 20 25.8594Z" fill="#6AA9FF"/>
<path d="M30.5469 20C30.5469 25.8156 25.8156 30.5469 20 30.5469V25.8594C23.2305 25.8594 25.8594 23.2312 25.8594 20C25.8594 16.7688 23.2305 14.1406 20 14.1406V9.45312C25.8156 9.45312 30.5469 14.1844 30.5469 20Z" fill="#4895FF"/>
</g>
<defs>
<clipPath id="clip0_2374_109893">
<rect width="40" height="40" fill="white"/>
</clipPath>
</defs>
</svg>
