<svg width="40" height="40" viewBox="0 0 40 40" fill="none" xmlns="http://www.w3.org/2000/svg">
<g clip-path="url(#clip0_2374_109920)">
<path d="M1.6663 28.3335C1.50078 28.3344 1.33873 28.2861 1.20079 28.1946C1.06286 28.1031 0.955301 27.9726 0.891829 27.8197C0.828357 27.6668 0.811847 27.4985 0.844405 27.3362C0.876963 27.1739 0.957114 27.025 1.07464 26.9085L2.20797 25.7835C2.28268 25.6962 2.37461 25.6254 2.478 25.5754C2.58138 25.5254 2.69399 25.4972 2.80876 25.4928C2.92353 25.4884 3.03797 25.5077 3.14491 25.5496C3.25184 25.5915 3.34897 25.6551 3.43018 25.7363C3.51139 25.8175 3.57494 25.9146 3.61684 26.0215C3.65873 26.1285 3.67807 26.2429 3.67364 26.3577C3.6692 26.4724 3.6411 26.5851 3.59108 26.6884C3.54106 26.7918 3.47021 26.8838 3.38297 26.9585C2.1663 28.1835 2.10797 28.3335 1.6663 28.3335Z" fill="#919191"/>
<path d="M26.365 3.63349C26.2002 3.6328 26.0393 3.58325 25.9026 3.49111C25.766 3.39898 25.6597 3.26839 25.5973 3.11586C25.5348 2.96334 25.519 2.79572 25.5518 2.63421C25.5847 2.4727 25.6646 2.32455 25.7817 2.20849L26.9067 1.07515C27.0636 0.918235 27.2764 0.830078 27.4983 0.830078C27.7202 0.830078 27.9331 0.918235 28.09 1.07515C28.2469 1.23207 28.3351 1.4449 28.3351 1.66682C28.3351 1.88874 28.2469 2.10157 28.09 2.25849C26.865 3.48349 26.8067 3.63349 26.365 3.63349Z" fill="#919191"/>
<path d="M24.5984 10.4581L23.4234 11.6664C23.2686 11.8214 23.0848 11.9443 22.8824 12.0282C22.6801 12.112 22.4632 12.1552 22.2442 12.1552C22.0252 12.1552 21.8083 12.112 21.606 12.0282C21.4036 11.9443 21.2198 11.8214 21.065 11.6664L17.4984 8.09974C17.2408 7.83978 17.0759 7.50227 17.0292 7.1393C16.9826 6.77633 17.0566 6.40809 17.24 6.09141C17.3567 5.84141 17.4984 5.74141 18.6734 4.56641L24.5984 10.4581Z" fill="#374F68"/>
<path d="M23.7651 9.62474L23.4234 9.96641C23.2686 10.1214 23.0848 10.2443 22.8825 10.3282C22.6802 10.412 22.4633 10.4552 22.2443 10.4552C22.0252 10.4552 21.8084 10.412 21.606 10.3282C21.4037 10.2443 21.2199 10.1214 21.0651 9.96641C17.3818 6.28307 17.3818 6.32474 17.2734 6.09141C17.3901 5.84141 17.5318 5.74141 18.7068 4.56641L23.7651 9.62474Z" fill="#425B72"/>
<path d="M27.5482 6.33341L25.1899 8.69174C25.0351 8.8467 24.8512 8.96963 24.6489 9.05351C24.4466 9.13738 24.2297 9.18055 24.0107 9.18055C23.7917 9.18055 23.5748 9.13738 23.3725 9.05351C23.1701 8.96963 22.9863 8.8467 22.8315 8.69174L20.4732 6.33341C20.3182 6.17862 20.1953 5.9948 20.1114 5.79247C20.0275 5.59014 19.9844 5.37327 19.9844 5.15424C19.9844 4.93521 20.0275 4.71834 20.1114 4.51601C20.1953 4.31368 20.3182 4.12986 20.4732 3.97507L22.8315 1.61674C22.9863 1.46178 23.1701 1.33885 23.3725 1.25497C23.5748 1.1711 23.7917 1.12793 24.0107 1.12793C24.2297 1.12793 24.4466 1.1711 24.6489 1.25497C24.8512 1.33885 25.0351 1.46178 25.1899 1.61674L27.5482 3.97507C27.7031 4.12986 27.8261 4.31368 27.9099 4.51601C27.9938 4.71834 28.037 4.93521 28.037 5.15424C28.037 5.37327 27.9938 5.59014 27.9099 5.79247C27.8261 5.9948 27.7031 6.17862 27.5482 6.33341Z" fill="#7C7D7D"/>
<path d="M26.7149 5.50007L24.3565 7.85841C24.2017 8.01337 24.0179 8.1363 23.8156 8.22017C23.6133 8.30405 23.3964 8.34722 23.1774 8.34722C22.9583 8.34722 22.7415 8.30405 22.5391 8.22017C22.3368 8.1363 22.153 8.01337 21.9982 7.85841L20.4732 6.33341C20.3182 6.17862 20.1953 5.9948 20.1114 5.79247C20.0275 5.59014 19.9844 5.37327 19.9844 5.15424C19.9844 4.93521 20.0275 4.71834 20.1114 4.51601C20.1953 4.31368 20.3182 4.12986 20.4732 3.97507L22.8315 1.61674C22.9863 1.46178 23.1701 1.33885 23.3725 1.25497C23.5748 1.1711 23.7917 1.12793 24.0107 1.12793C24.2297 1.12793 24.4466 1.1711 24.6489 1.25497C24.8513 1.33885 25.0351 1.46178 25.1899 1.61674L26.7149 3.14174C26.8698 3.29653 26.9927 3.48034 27.0766 3.68267C27.1605 3.885 27.2037 4.10188 27.2037 4.32091C27.2037 4.53993 27.1605 4.75681 27.0766 4.95914C26.9927 5.16147 26.8698 5.34529 26.7149 5.50007Z" fill="#919191"/>
<path d="M11.6664 23.4255L10.4914 24.6005L4.56641 18.7089L5.74141 17.5005C5.89619 17.3456 6.08001 17.2226 6.28234 17.1388C6.48467 17.0549 6.70155 17.0117 6.92057 17.0117C7.1396 17.0117 7.35648 17.0549 7.55881 17.1388C7.76114 17.2226 7.94495 17.3456 8.09974 17.5005C11.8997 21.3005 11.7747 21.1422 11.8914 21.3839C12.0873 21.7004 12.1716 22.0734 12.1308 22.4435C12.09 22.8135 11.9265 23.1592 11.6664 23.4255Z" fill="#374F68"/>
<path d="M11.8901 21.4172C11.7616 21.636 11.5848 21.8225 11.3733 21.9626C11.1618 22.1027 10.921 22.1927 10.6695 22.2257C10.4179 22.2586 10.1621 22.2337 9.92161 22.1528C9.68113 22.0719 9.46229 21.9372 9.28177 21.7589L5.39844 17.8755L5.7401 17.5005C5.89489 17.3456 6.07871 17.2226 6.28104 17.1388C6.48337 17.0549 6.70025 17.0117 6.91927 17.0117C7.1383 17.0117 7.35518 17.0549 7.55751 17.1388C7.75984 17.2226 7.94365 17.3456 8.09844 17.5005C11.8984 21.3339 11.7734 21.1755 11.8901 21.4172Z" fill="#425B72"/>
<path d="M8.68881 25.1918L6.33048 27.5501C6.17569 27.7051 5.99187 27.828 5.78954 27.9119C5.58721 27.9958 5.37034 28.039 5.15131 28.039C4.93229 28.039 4.71541 27.9958 4.51308 27.9119C4.31075 27.828 4.12693 27.7051 3.97214 27.5501L1.61381 25.1918C1.45885 25.037 1.33592 24.8532 1.25204 24.6509C1.16817 24.4485 1.125 24.2317 1.125 24.0126C1.125 23.7936 1.16817 23.5767 1.25204 23.3744C1.33592 23.1721 1.45885 22.9883 1.61381 22.8335L3.97214 20.4751C4.12693 20.3202 4.31075 20.1972 4.51308 20.1134C4.71541 20.0295 4.93229 19.9863 5.15131 19.9863C5.37034 19.9863 5.58721 20.0295 5.78954 20.1134C5.99187 20.1972 6.17569 20.3202 6.33048 20.4751L8.68881 22.8335C8.84377 22.9883 8.9667 23.1721 9.05058 23.3744C9.13445 23.5767 9.17762 23.7936 9.17762 24.0126C9.17762 24.2317 9.13445 24.4485 9.05058 24.6509C8.9667 24.8532 8.84377 25.037 8.68881 25.1918Z" fill="#7C7D7D"/>
<path d="M3.96469 20.4748L1.60802 22.8314C0.957245 23.4822 0.957245 24.5373 1.60802 25.1881L3.13396 26.714C3.78474 27.3648 4.83985 27.3648 5.49063 26.714L7.8473 24.3574C8.49807 23.7066 8.49807 22.6515 7.8473 22.0007L6.32136 20.4748C5.67058 19.824 4.61546 19.824 3.96469 20.4748Z" fill="#919191"/>
<path d="M8.6875 18.1182L18.1083 8.69739L20.4649 11.0541L11.0442 20.4748L8.6875 18.1182Z" fill="#7C7D7D"/>
<path d="M19.6401 10.2164L12.5734 17.2831C12.1688 17.6871 11.6203 17.9141 11.0484 17.9141C10.4766 17.9141 9.92811 17.6871 9.52344 17.2831L18.1151 8.69141L19.6401 10.2164Z" fill="#919191"/>
<path d="M22.7404 5.59167L20.832 3.65L21.982 2.5L23.9237 4.44167C24.0419 4.60385 24.0977 4.80324 24.0806 5.00322C24.0636 5.2032 23.975 5.39031 23.8311 5.53019C23.6872 5.67006 23.4976 5.75329 23.2972 5.76459C23.0968 5.77588 22.8991 5.71448 22.7404 5.59167Z" fill="#747575"/>
<path d="M8.33284 25.5168L7.18284 26.6668L5.24117 24.7585C5.08425 24.6016 4.99609 24.3887 4.99609 24.1668C4.99609 23.9449 5.08425 23.7321 5.24117 23.5752C5.39809 23.4182 5.61092 23.3301 5.83284 23.3301C6.05476 23.3301 6.26758 23.4182 6.4245 23.5752L8.33284 25.5168Z" fill="#747575"/>
<path d="M12.4983 39.1665C12.3328 39.1674 12.1708 39.1191 12.0328 39.0276C11.8949 38.9361 11.7873 38.8056 11.7239 38.6527C11.6604 38.4998 11.6439 38.3315 11.6764 38.1692C11.709 38.007 11.7891 37.858 11.9067 37.7415L13.04 36.6165C13.1147 36.5292 13.2066 36.4584 13.31 36.4084C13.4134 36.3584 13.526 36.3302 13.6408 36.3258C13.7556 36.3214 13.87 36.3407 13.9769 36.3826C14.0839 36.4245 14.181 36.4881 14.2622 36.5693C14.3434 36.6505 14.407 36.7476 14.4489 36.8545C14.4908 36.9615 14.5101 37.0759 14.5057 37.1907C14.5012 37.3055 14.4731 37.4181 14.4231 37.5215C14.3731 37.6248 14.3022 37.7168 14.215 37.7915C12.9983 39.0165 12.94 39.1665 12.4983 39.1665Z" fill="#919191"/>
<path d="M37.197 14.4665C37.0322 14.4658 36.8713 14.4163 36.7347 14.3241C36.598 14.232 36.4917 14.1014 36.4293 13.9489C36.3669 13.7963 36.3511 13.6287 36.3839 13.4672C36.4167 13.3057 36.4967 13.1576 36.6137 13.0415L37.7387 11.9082C37.8956 11.7512 38.1084 11.6631 38.3304 11.6631C38.5523 11.6631 38.7651 11.7512 38.922 11.9082C39.079 12.0651 39.1671 12.2779 39.1671 12.4998C39.1671 12.7217 39.079 12.9346 38.922 13.0915C37.697 14.3165 37.6387 14.4665 37.197 14.4665Z" fill="#919191"/>
<path d="M35.4304 21.2921L34.2554 22.5004C34.1006 22.6554 33.9168 22.7783 33.7145 22.8622C33.5121 22.946 33.2953 22.9892 33.0762 22.9892C32.8572 22.9892 32.6403 22.946 32.438 22.8622C32.2357 22.7783 32.0519 22.6554 31.8971 22.5004L28.3304 18.9337C28.0728 18.6738 27.908 18.3363 27.8613 17.9733C27.8146 17.6103 27.8887 17.2421 28.0721 16.9254C28.1887 16.6754 28.3304 16.5754 29.5054 15.4004L35.4304 21.2921Z" fill="#374F68"/>
<path d="M34.5971 20.4587L34.2555 20.8004C34.1007 20.9553 33.9169 21.0783 33.7145 21.1622C33.5122 21.246 33.2953 21.2892 33.0763 21.2892C32.8573 21.2892 32.6404 21.246 32.4381 21.1622C32.2357 21.0783 32.0519 20.9553 31.8971 20.8004C28.2138 17.1171 28.2138 17.1587 28.1055 16.9254C28.2221 16.6754 28.3638 16.5754 29.5388 15.4004L34.5971 20.4587Z" fill="#425B72"/>
<path d="M38.3841 17.1664L36.0258 19.5248C35.871 19.6797 35.6872 19.8026 35.4849 19.8865C35.2825 19.9704 35.0657 20.0136 34.8466 20.0136C34.6276 20.0136 34.4107 19.9704 34.2084 19.8865C34.0061 19.8026 33.8222 19.6797 33.6675 19.5248L31.3091 17.1664C31.1542 17.0116 31.0312 16.8278 30.9474 16.6255C30.8635 16.4232 30.8203 16.2063 30.8203 15.9873C30.8203 15.7682 30.8635 15.5513 30.9474 15.349C31.0312 15.1467 31.1542 14.9629 31.3091 14.8081L33.6675 12.4497C33.8222 12.2948 34.0061 12.1719 34.2084 12.088C34.4107 12.0041 34.6276 11.9609 34.8466 11.9609C35.0657 11.9609 35.2825 12.0041 35.4849 12.088C35.6872 12.1719 35.871 12.2948 36.0258 12.4497L38.3841 14.8081C38.5391 14.9629 38.662 15.1467 38.7459 15.349C38.8298 15.5513 38.8729 15.7682 38.8729 15.9873C38.8729 16.2063 38.8298 16.4232 38.7459 16.6255C38.662 16.8278 38.5391 17.0116 38.3841 17.1664Z" fill="#7C7D7D"/>
<path d="M37.5508 16.3331L35.1925 18.6914C35.0377 18.8464 34.8539 18.9693 34.6515 19.0532C34.4492 19.1371 34.2323 19.1802 34.0133 19.1802C33.7943 19.1802 33.5774 19.1371 33.3751 19.0532C33.1727 18.9693 32.9889 18.8464 32.8341 18.6914L31.3091 17.1664C31.1542 17.0116 31.0312 16.8278 30.9474 16.6255C30.8635 16.4232 30.8203 16.2063 30.8203 15.9872C30.8203 15.7682 30.8635 15.5513 30.9474 15.349C31.0312 15.1467 31.1542 14.9629 31.3091 14.8081L33.6675 12.4497C33.8223 12.2948 34.0061 12.1719 34.2084 12.088C34.4107 12.0041 34.6276 11.9609 34.8466 11.9609C35.0657 11.9609 35.2825 12.0041 35.4849 12.088C35.6872 12.1719 35.871 12.2948 36.0258 12.4497L37.5508 13.9747C37.7058 14.1295 37.8287 14.3134 37.9126 14.5157C37.9964 14.718 38.0396 14.9349 38.0396 15.1539C38.0396 15.3729 37.9964 15.5898 37.9126 15.7921C37.8287 15.9945 37.7058 16.1783 37.5508 16.3331Z" fill="#919191"/>
<path d="M22.5003 34.2585L21.3253 35.4335L15.4336 29.5419L16.5753 28.3335C16.73 28.1786 16.9139 28.0556 17.1162 27.9718C17.3185 27.8879 17.5354 27.8447 17.7544 27.8447C17.9735 27.8447 18.1903 27.8879 18.3927 27.9718C18.595 28.0556 18.7788 28.1786 18.9336 28.3335C22.7336 32.1335 22.6086 31.9752 22.7253 32.2169C22.9212 32.5334 23.0054 32.9065 22.9647 33.2765C22.9239 33.6465 22.7604 33.9922 22.5003 34.2585Z" fill="#374F68"/>
<path d="M22.7221 32.2501C22.5936 32.4689 22.4169 32.6554 22.2053 32.7955C21.9938 32.9356 21.7531 33.0256 21.5015 33.0585C21.2499 33.0915 20.9941 33.0666 20.7536 32.9857C20.5132 32.9048 20.2943 32.77 20.1138 32.5917L16.2305 28.7084L16.5721 28.3667C16.7269 28.2118 16.9107 28.0888 17.1131 28.005C17.3154 27.9211 17.5323 27.8779 17.7513 27.8779C17.9703 27.8779 18.1872 27.9211 18.3895 28.005C18.5919 28.0888 18.7757 28.2118 18.9305 28.3667C22.7305 32.1667 22.6055 32.0084 22.7221 32.2501Z" fill="#425B72"/>
<path d="M19.5248 36.0248L17.1664 38.3831C17.0116 38.5381 16.8278 38.661 16.6255 38.7449C16.4232 38.8288 16.2063 38.872 15.9873 38.872C15.7682 38.872 15.5513 38.8288 15.349 38.7449C15.1467 38.661 14.9629 38.5381 14.8081 38.3831L12.4497 36.0248C12.2948 35.87 12.1719 35.6862 12.088 35.4839C12.0041 35.2815 11.9609 35.0647 11.9609 34.8456C11.9609 34.6266 12.0041 34.4097 12.088 34.2074C12.1719 34.0051 12.2948 33.8213 12.4497 33.6665L14.8081 31.3081C14.9629 31.1532 15.1467 31.0303 15.349 30.9464C15.5513 30.8625 15.7682 30.8193 15.9873 30.8193C16.2063 30.8193 16.4232 30.8625 16.6255 30.9464C16.8278 31.0303 17.0116 31.1532 17.1664 31.3081L19.5248 33.6665C19.6797 33.8213 19.8026 34.0051 19.8865 34.2074C19.9704 34.4097 20.0136 34.6266 20.0136 34.8456C20.0136 35.0647 19.9704 35.2815 19.8865 35.4839C19.8026 35.6862 19.6797 35.87 19.5248 36.0248Z" fill="#7C7D7D"/>
<path d="M14.8006 31.3078L12.444 33.6644C11.7932 34.3152 11.7932 35.3703 12.444 36.0211L13.9699 37.547C14.6207 38.1978 15.6758 38.1978 16.3266 37.547L18.6832 35.1904C19.334 34.5396 19.334 33.4845 18.6832 32.8337L17.1573 31.3078C16.5065 30.657 15.4514 30.657 14.8006 31.3078Z" fill="#919191"/>
<path d="M19.5195 28.9521L28.9403 19.5314L31.297 21.888L21.8762 31.3088L19.5195 28.9521Z" fill="#7C7D7D"/>
<path d="M30.4721 21.0504L23.4055 28.1171C23.0008 28.5211 22.4523 28.748 21.8805 28.748C21.3086 28.748 20.7601 28.5211 20.3555 28.1171L28.9471 19.5254L30.4721 21.0504Z" fill="#919191"/>
<path d="M33.5724 16.4247L31.6641 14.483L32.8141 13.333L34.7557 15.2747C34.874 15.4369 34.9297 15.6363 34.9127 15.8362C34.8957 16.0362 34.807 16.2233 34.6631 16.3632C34.5192 16.5031 34.3296 16.5863 34.1292 16.5976C33.9289 16.6089 33.7311 16.5475 33.5724 16.4247Z" fill="#747575"/>
<path d="M19.1649 36.35L18.0149 37.5L16.0732 35.5583C15.9163 35.4014 15.8281 35.1885 15.8281 34.9666C15.8281 34.7447 15.9163 34.5319 16.0732 34.375C16.2301 34.218 16.4429 34.1299 16.6649 34.1299C16.8868 34.1299 17.0996 34.218 17.2565 34.375L19.1649 36.35Z" fill="#747575"/>
</g>
<defs>
<clipPath id="clip0_2374_109920">
<rect width="40" height="40" fill="white"/>
</clipPath>
</defs>
</svg>
