<svg width="40" height="40" viewBox="0 0 40 40" fill="none" xmlns="http://www.w3.org/2000/svg">
<path d="M33.4523 16.6452C33.1187 16.6452 32.8483 16.3748 32.8483 16.0412C32.8483 15.1196 32.3674 14.7848 31.5173 14.2725C30.4638 13.6377 29.0209 12.7682 29.6974 9.93458C29.7749 9.61012 30.1008 9.40997 30.4251 9.48731C30.7495 9.56473 30.9499 9.89059 30.8724 10.215C30.401 12.1894 31.1308 12.6292 32.1408 13.2379C32.9942 13.7522 34.0563 14.3922 34.0563 16.0412C34.0563 16.3748 33.7858 16.6452 33.4523 16.6452Z" fill="#DA4A54"/>
<path d="M35.8021 17.1156C35.6971 17.1156 35.5907 17.0883 35.4939 17.0306C35.2071 16.8602 35.113 16.4895 35.2835 16.2027C35.9406 15.098 35.3367 13.5705 34.7525 12.0932C34.1587 10.5911 33.5446 9.03781 34.2 7.74571C34.6241 6.90953 35.5043 6.32711 36.891 5.965C37.214 5.88086 37.5438 6.07414 37.6281 6.3968C37.7124 6.71953 37.519 7.04953 37.1963 7.13383C36.1779 7.39977 35.5324 7.78946 35.2773 8.29219C34.8678 9.09938 35.3575 10.3379 35.876 11.6491C36.535 13.3162 37.2821 15.2056 36.3218 16.8203C36.2089 17.0102 36.0081 17.1156 35.8021 17.1156Z" fill="#698ED5"/>
<path d="M24.332 40.0003C17.3231 40.0003 11.6211 34.2982 11.6211 27.2895V21.6266H16.4532V27.2895C16.4532 31.6338 19.9876 35.1682 24.332 35.1682C28.6763 35.1682 32.2107 31.6338 32.2107 27.2895V16.041H37.0428V27.2895C37.0428 34.2982 31.3407 40.0003 24.332 40.0003Z" fill="#756E78"/>
<path d="M26.2152 35.1682C30.5595 35.1682 34.0939 31.6338 34.0939 27.2895V16.041H32.2105V27.2895C32.2105 31.3152 29.1755 34.6448 25.2734 35.1117C25.5824 35.1487 25.8966 35.1682 26.2152 35.1682Z" fill="#665E66"/>
<path d="M13.5045 27.2898V21.627H11.6211V27.2898C11.6211 34.2986 17.3232 40.0007 24.332 40.0007C24.6487 40.0007 24.9627 39.9887 25.2736 39.9658C18.7029 39.4823 13.5045 33.9819 13.5045 27.2898Z" fill="#665E66"/>
<path d="M23.0467 15.4334V22.5622C23.0467 25.4659 20.6932 27.8193 17.7896 27.8193H10.2883C7.38469 27.8193 5.03125 25.4659 5.03125 22.5622V15.4334L14.039 12.7539L23.0467 15.4334Z" fill="#F1F4F6"/>
<path d="M13.0901 27.8203H10.2869C7.38477 27.8203 5.03125 25.4668 5.03125 22.5632V15.4344L14.039 12.7549L15.4406 13.1712L7.83445 15.4344V22.5632C7.83445 25.4668 10.188 27.8203 13.0901 27.8203Z" fill="#E7ECF1"/>
<path d="M21.6083 1.93844V11.5293H17.7305V1.93844C17.7305 0.868203 18.5979 0 19.669 0C20.7401 0 21.6083 0.868203 21.6083 1.93844Z" fill="#F6E266"/>
<path d="M20.4376 0.158594C19.7491 0.455547 19.2659 1.14102 19.2659 1.93859V11.5295H17.7305V1.93859C17.7305 0.867422 18.5994 8.06004e-08 19.6691 8.06004e-08C19.9427 -7.80444e-05 20.2017 0.0566407 20.4376 0.158594Z" fill="#FFD064"/>
<path d="M10.3466 1.93844V11.5293H6.46875V1.93844C6.46875 0.868203 7.33695 0 8.40805 0C9.47836 0 10.3466 0.868203 10.3466 1.93844Z" fill="#F6E266"/>
<path d="M9.17594 0.158594C8.4875 0.455547 8.0043 1.14102 8.0043 1.93859V11.5295H6.46875V1.93859C6.46875 0.867422 7.33766 8.06004e-08 8.40742 8.06004e-08C8.68102 -7.80444e-05 8.94016 0.0566407 9.17594 0.158594Z" fill="#FFD064"/>
<path d="M6.46875 8.76465H10.3465V11.5294H6.46875V8.76465Z" fill="#FFD064"/>
<path d="M17.7344 8.76465H21.6121V11.5294H17.7344V8.76465Z" fill="#FFD064"/>
<path d="M23.0467 15.4334V17.8829H5.03125V15.4334L14.039 12.7539L23.0467 15.4334Z" fill="#E7ECF1"/>
<path d="M25.7257 12.7539C25.7257 11.274 24.5259 10.0742 23.046 10.0742H5.03125C3.55133 10.0742 2.35156 11.274 2.35156 12.7539C2.35156 14.2338 3.55133 15.4336 5.03125 15.4336H23.046C24.5259 15.4336 25.7257 14.2339 25.7257 12.7539Z" fill="#F1F4F6"/>
<path d="M9.37266 14.6488C9.85875 15.1334 10.5283 15.4333 11.2677 15.4333H5.03102C4.29016 15.4333 3.6207 15.1334 3.13602 14.6488C2.65133 14.1641 2.35156 13.4931 2.35156 12.7537C2.35156 11.2736 3.55086 10.0742 5.03109 10.0742H11.2677C9.78891 10.0742 8.58813 11.2735 8.58813 12.7537C8.58813 13.4931 8.88797 14.1641 9.37266 14.6488Z" fill="#E7ECF1"/>
<path d="M16.681 21.4366H15.3564C15.0781 21.4366 14.8525 21.211 14.8525 20.9326V17.4835C14.8525 16.9967 14.2307 16.7927 13.9424 17.185L11.4074 20.6342C11.1628 20.967 11.4004 21.4367 11.8135 21.4367H13.138C13.4164 21.4367 13.642 21.6623 13.642 21.9407V25.3897C13.642 25.8765 14.2638 26.0805 14.5521 25.6882L17.0871 22.2392C17.3317 21.9062 17.094 21.4366 16.681 21.4366Z" fill="#E49542"/>
</svg>
