<svg width="40" height="40" viewBox="0 0 40 40" fill="none" xmlns="http://www.w3.org/2000/svg">
<path d="M12.1953 10.57H14.797V7.8009C14.797 7.53418 15.0131 7.31801 15.2798 7.31801H15.6099V4.55371H13.8213C12.9233 4.55371 12.1953 5.28168 12.1953 6.17973V10.57Z" fill="#80B6FC"/>
<path d="M12.1953 8.61816H14.797V10.5694H12.1953V8.61816Z" fill="#62A4FB"/>
<path d="M27.8052 10.57H25.2036V7.8009C25.2036 7.53418 24.9874 7.31801 24.7207 7.31801H24.3906V4.55371H26.1792C27.0773 4.55371 27.8052 5.28168 27.8052 6.17973V10.57Z" fill="#80B6FC"/>
<path d="M25.2031 8.61816H27.8048V10.5694H25.2031V8.61816Z" fill="#62A4FB"/>
<path d="M40 19.3505V21.3014C40 21.6612 39.7087 21.9518 39.3497 21.9518H0.650313C0.291328 21.9518 0 21.6612 0 21.3014V19.3505C0 18.9915 0.291328 18.7002 0.650313 18.7002H6.66641L8.29297 19.5211L9.91875 18.7002H30.0813L31.707 19.5211L33.3336 18.7002H39.3497C39.7087 18.7002 40 18.9915 40 19.3505Z" fill="#F7E365"/>
<path d="M39.3477 18.6992H36.7461C37.1053 18.6992 37.3965 18.9904 37.3965 19.3496V21.3009C37.3965 21.6601 37.1053 21.9512 36.7461 21.9512H39.3477C39.707 21.9512 39.9981 21.6601 39.9981 21.3009V19.3496C39.9981 18.9904 39.707 18.6992 39.3477 18.6992Z" fill="#F3D332"/>
<path d="M38.6992 18.6994H1.30078L2.66539 11.8764C2.81742 11.1164 3.48477 10.5693 4.25984 10.5693H35.7402C36.5152 10.5693 37.1826 11.1164 37.3346 11.8764L38.6992 18.6994Z" fill="#E9A761"/>
<path d="M37.3342 11.8764C37.1822 11.1164 36.5148 10.5693 35.7398 10.5693H33.3008C34.0759 10.5693 34.7432 11.1164 34.8952 11.8764L36.2598 18.6994H38.6989L37.3342 11.8764Z" fill="#E69642"/>
<path d="M1.30078 21.9521H38.6992L37.2339 35.1398C37.1424 35.9632 36.4464 36.5863 35.6178 36.5863H4.38219C3.55367 36.5863 2.85758 35.9633 2.76609 35.1398L1.30078 21.9521Z" fill="#E9A761"/>
<path d="M26.5044 36.586L25.0769 33.607C24.8065 33.0427 24.2362 32.6836 23.6105 32.6836H16.39C15.7642 32.6836 15.1941 33.0427 14.9236 33.607L13.4961 36.586H26.5044Z" fill="#E1761C"/>
<path d="M36.2611 21.9521L34.7958 35.1398C34.7043 35.9632 34.0082 36.5863 33.1797 36.5863H35.6187C36.4473 36.5863 37.1434 35.9633 37.2348 35.1398L38.7002 21.9521H36.2611Z" fill="#E69642"/>
<path d="M30.082 18.6992H33.3341V21.9512H30.082V18.6992Z" fill="#80B6FC"/>
<path d="M31.708 28.6188C30.81 28.6188 30.082 27.8908 30.082 26.9928V24.5537H33.3341V26.9928C33.3341 27.8908 32.606 28.6188 31.708 28.6188Z" fill="#80B6FC"/>
<path d="M30.082 24.5537H33.3341V26.505H30.082V24.5537Z" fill="#62A4FB"/>
<path d="M33.4957 24.5528H29.9184C29.4695 24.5528 29.1055 24.1888 29.1055 23.7398V22.7642C29.1055 22.3152 29.4695 21.9512 29.9184 21.9512H33.4957C33.9447 21.9512 34.3087 22.3152 34.3087 22.7642V23.7398C34.3087 24.1888 33.9447 24.5528 33.4957 24.5528Z" fill="#D3EFFD"/>
<path d="M9.91797 21.9512H6.66594V18.6991H9.91797V21.9512Z" fill="#80B6FC"/>
<path d="M8.29399 28.6188C9.19203 28.6188 9.92 27.8908 9.92 26.9928V24.5537H6.66797V26.9928C6.66797 27.8908 7.39602 28.6188 8.29399 28.6188Z" fill="#80B6FC"/>
<path d="M6.66797 24.5537H9.92V26.505H6.66797V24.5537Z" fill="#62A4FB"/>
<path d="M6.50445 24.5528H10.0817C10.5307 24.5528 10.8948 24.1888 10.8948 23.7398V22.7642C10.8948 22.3152 10.5308 21.9512 10.0817 21.9512H6.50445C6.05547 21.9512 5.69141 22.3152 5.69141 22.7642V23.7398C5.69148 24.1888 6.05547 24.5528 6.50445 24.5528Z" fill="#D3EFFD"/>
<path d="M14.7969 4.22809V6.50449C14.7969 6.95348 15.1609 7.31754 15.6098 7.31754H24.3903C24.8393 7.31754 25.2033 6.95355 25.2033 6.50449V4.22809C25.2033 3.7791 24.8393 3.41504 24.3903 3.41504H15.6098C15.1609 3.41504 14.7969 3.77902 14.7969 4.22809Z" fill="#F7E365"/>
<path d="M24.3916 3.41504H22.7656C23.2146 3.41504 23.5787 3.77902 23.5787 4.22809V6.50449C23.5787 6.95348 23.2147 7.31754 22.7656 7.31754H24.3916C24.8406 7.31754 25.2046 6.95355 25.2046 6.50449V4.22809C25.2047 3.77902 24.8406 3.41504 24.3916 3.41504Z" fill="#F3D332"/>
</svg>
